<?xml version="1.0" encoding="UTF-8"?>
<!-- Generator: Adobe Illustrator 22.1.0, SVG Export Plug-In . SVG Version: 6.00 Build 0)  -->
<svg version="1.1" id="Layer_1" xmlns="http://www.w3.org/2000/svg" xmlns:xlink="http://www.w3.org/1999/xlink" x="0px" y="0px" viewBox="0 0 2873 857" style="enable-background:new 0 0 2873 857;" xml:space="preserve">
<style type="text/css">
	.st0{fill:#232230;}
</style>
<g>
	<path class="st0" d="M676.565,0.901H11.293c-12.121,0-14.343,17.266-2.617,20.334l0,0c78.105,20.44,125.23,99.911,105.699,178.248   L36.763,510.768c-12.586,50.479,25.599,99.354,77.624,99.354h320.815c80.735,0,146.445,64.951,147.383,145.681l0,0   c0.141,12.12,17.431,14.141,20.363,2.38l160.944-645.511C778.051,55.883,735.093,0.901,676.565,0.901z M545.682,223.158   L500.997,402.38c-3.332,13.364-15.336,22.742-29.109,22.742h-184.71c-19.509,0-33.829-18.328-29.109-37.258l44.685-179.223   c3.332-13.364,15.336-22.742,29.109-22.742h184.71C536.082,185.9,550.402,204.228,545.682,223.158z"/>
	<g>
		<path class="st0" d="M1039.553,0.901h153.473v356.872h1.849l142.379-185.832h182.134l-193.229,225.587l187.682,287.532h-173.813    l-145.153-246.853h-1.849V685.06h-153.474L1039.553,0.901L1039.553,0.901z"/>
		<path class="st0" d="M2042.74,171.94l-257.022,684.159H1623l81.36-196.927L1513.904,171.94h163.644l102.624,297.701h1.849    l98.001-297.701H2042.74z"/>
		<path class="st0" d="M2268.444,171.94h73.963v116.491h-73.963v396.628H2114.97V288.432h-75.812V171.94h75.812V0.901h153.474    L2268.444,171.94L2268.444,171.94z"/>
		<path class="st0" d="M2854.483,524.189c-12.336,28.979-27.434,54.403-45.303,76.274c-17.883,21.886-37.602,40.218-59.17,55.011    c-43.15,30.812-91.848,46.227-146.078,46.227c-36.98,0-71.811-6.934-104.473-20.802c-32.676-13.868-61.482-33.125-86.443-57.784    c-24.963-24.645-44.697-53.464-59.171-86.444c-14.489-32.966-21.727-68.561-21.727-106.784c0-35.739,6.616-70.266,19.877-103.549    c13.247-33.283,31.896-62.551,55.935-87.831c24.039-25.266,52.539-45.605,85.52-61.02c32.967-15.399,68.879-23.113,107.709-23.113    c38.832,0,74.889,7.252,108.172,21.727c33.283,14.489,61.943,34.366,85.982,59.633c24.037,25.28,42.832,55.01,56.396,89.218    c13.551,34.208,20.34,70.728,20.34,109.558c0,10.488-0.318,18.347-0.924,23.576c-0.621,5.244-1.547,10.95-2.773,17.104h-384.609    c4.926,30.827,18.635,54.706,41.143,71.651c22.492,16.96,48.842,25.425,79.047,25.425c23.418,0,42.211-4.623,56.398-13.868    c14.17-9.245,26.492-20.644,36.98-34.208h157.172V524.189z M2718.576,371.641c-1.85-7.396-5.086-16.18-9.709-26.35    s-11.557-19.878-20.803-29.123c-9.244-9.245-20.961-16.945-35.131-23.113c-14.188-6.154-31.131-9.245-50.85-9.245    c-19.734,0-36.68,3.091-50.85,9.245c-14.188,6.168-25.889,13.868-35.133,23.113c-9.246,9.245-16.18,18.953-20.803,29.123    s-7.859,18.953-9.707,26.35H2718.576z"/>
	</g>
</g>
</svg>